<svg xmlns="http://www.w3.org/2000/svg" xmlns:xlink="http://www.w3.org/1999/xlink" preserveAspectRatio="xMidYMid" width="21" height="19" viewBox="0 0 21 19">
  <defs>
    <style>
      .cls-1 {
        fill: #f0f0f0;
        fill-rule: evenodd;
      }
    </style>
  </defs>
  <path d="M10.504,-0.012 C4.709,-0.012 0.011,4.780 0.011,10.691 C0.011,11.348 0.532,11.880 1.177,11.880 C1.821,11.880 2.342,11.348 2.342,10.691 C2.342,6.101 6.004,2.367 10.504,2.367 C15.004,2.367 18.665,6.101 18.665,10.691 C18.665,11.348 19.187,11.880 19.831,11.880 C20.475,11.880 20.997,11.348 20.997,10.691 C20.997,4.780 16.299,-0.012 10.504,-0.012 ZM11.670,9.658 L11.670,5.934 C11.670,5.277 11.148,4.745 10.504,4.745 C9.860,4.745 9.338,5.277 9.338,5.934 L9.338,9.658 C7.327,10.186 5.840,12.042 5.840,14.258 C5.840,16.885 7.928,19.015 10.504,19.015 C13.079,19.015 15.167,16.885 15.167,14.258 C15.167,12.043 13.680,10.187 11.670,9.658 ZM10.504,16.637 C9.218,16.637 8.172,15.570 8.172,14.258 C8.172,12.947 9.218,11.880 10.504,11.880 C11.790,11.880 12.836,12.947 12.836,14.258 C12.836,15.570 11.790,16.637 10.504,16.637 Z" class="cls-1"/>
</svg>
