<svg xmlns="http://www.w3.org/2000/svg" xmlns:xlink="http://www.w3.org/1999/xlink" preserveAspectRatio="xMidYMid" width="147" height="134.062" viewBox="0 0 147 134.062">
  <defs>
    <style>
      .cls-1 {
        fill: #61e1da;
      }

      .cls-1, .cls-2 {
        fill-rule: evenodd;
      }

      .cls-2 {
        fill: #12b8af;
      }
    </style>
  </defs>
  <g>
    <g>
      <path d="M127.801,53.322 C124.259,53.249 120.714,53.300 117.170,53.301 C113.943,53.301 110.716,53.321 107.490,53.285 C107.389,53.284 107.281,53.292 107.171,53.303 C107.135,52.606 107.077,51.912 107.008,51.221 C107.100,51.213 107.192,51.206 107.280,51.198 C114.094,50.589 120.911,50.024 127.723,49.397 C129.306,49.252 129.087,50.336 129.110,51.237 C129.135,52.183 129.563,53.358 127.801,53.322 ZM126.536,45.333 C120.996,45.855 115.451,46.337 109.909,46.842 C108.817,46.942 107.729,47.087 106.638,47.212 C106.562,47.224 106.492,47.230 106.423,47.235 C106.270,46.444 106.102,45.658 105.907,44.879 C106.086,44.757 106.307,44.660 106.580,44.583 C110.568,43.450 114.547,42.287 118.532,41.143 C120.858,40.474 123.193,39.835 125.514,39.149 C126.151,38.961 126.721,38.722 126.957,39.642 C127.345,41.157 127.829,42.654 128.118,44.189 C128.354,45.449 127.238,45.266 126.536,45.333 ZM124.262,35.202 C118.012,37.043 111.750,38.845 105.488,40.647 C105.166,40.740 104.881,40.784 104.636,40.730 C104.388,40.041 104.127,39.356 103.846,38.680 C103.946,38.501 104.132,38.337 104.449,38.167 C110.064,35.155 115.642,32.074 121.238,29.028 C121.616,28.822 122.163,28.382 122.461,28.922 C123.447,30.709 124.324,32.556 125.126,34.149 C125.293,35.173 124.594,35.104 124.262,35.202 ZM101.914,34.642 C101.426,33.740 100.908,32.856 100.359,31.990 C100.423,31.813 100.560,31.622 100.808,31.411 C105.483,27.430 110.167,23.458 114.808,19.437 C115.686,18.676 116.003,19.267 116.438,19.844 C117.665,21.474 118.896,23.102 120.246,24.890 C114.329,28.117 108.536,31.258 102.767,34.440 C102.408,34.638 102.133,34.692 101.914,34.642 ZM111.315,17.073 C107.074,20.606 102.895,24.215 98.734,27.842 C98.395,28.137 98.102,28.340 97.831,28.402 C96.383,26.555 92.655,22.812 92.655,22.812 C92.655,22.812 94.697,15.908 95.016,14.608 C95.271,13.570 95.814,12.429 94.482,11.691 C93.268,11.018 92.589,11.947 91.869,12.657 C90.125,14.374 85.122,19.076 85.122,19.076 C85.122,19.076 85.079,19.068 83.683,18.512 C61.147,9.544 35.630,24.096 31.668,48.122 C29.408,61.829 32.828,73.834 42.183,84.215 C49.427,92.253 58.360,96.760 68.984,98.129 C69.122,98.147 69.248,98.265 69.640,98.477 C62.034,98.724 55.119,96.913 48.764,93.471 C34.906,85.964 26.260,74.335 23.748,58.723 C19.563,32.701 36.020,8.038 61.622,1.753 C80.371,-2.850 96.946,1.734 111.385,14.479 C112.628,15.577 112.478,16.104 111.315,17.073 Z" class="cls-1"/>
      <path d="M91.151,15.647 C87.847,18.922 84.577,22.231 81.289,25.522 C69.328,37.494 64.635,42.142 61.237,45.611 C56.228,50.727 56.265,58.489 61.142,63.194 C67.855,69.671 78.720,66.823 81.358,57.767 C84.150,48.182 86.712,38.530 89.368,28.906 C90.702,24.076 92.023,19.243 93.434,14.105 C92.083,14.363 91.688,15.114 91.151,15.647 ZM69.532,59.607 C66.780,59.665 64.391,57.380 64.310,54.613 C64.225,51.693 66.497,49.265 69.363,49.213 C72.191,49.163 74.652,51.605 74.632,54.442 C74.612,57.177 72.270,59.549 69.532,59.607 Z" class="cls-2"/>
    </g>
    <path d="M144.982,133.290 L142.838,133.290 C141.727,133.290 140.826,132.656 140.826,131.874 L140.826,66.626 C140.826,65.845 141.727,65.211 142.838,65.211 L144.982,65.211 C146.094,65.211 146.994,65.845 146.994,66.626 L146.994,131.874 C146.994,132.656 146.094,133.290 144.982,133.290 ZM129.447,133.290 L127.303,133.290 C126.192,133.290 125.291,132.656 125.291,131.874 L125.291,93.631 C125.291,92.849 126.192,92.215 127.303,92.215 L129.447,92.215 C130.559,92.215 131.459,92.849 131.459,93.631 L131.459,131.874 C131.459,132.656 130.559,133.290 129.447,133.290 ZM113.752,133.290 L111.608,133.290 C110.497,133.290 109.596,132.656 109.596,131.874 L109.596,84.578 C109.596,83.796 110.497,83.162 111.608,83.162 L113.752,83.162 C114.864,83.162 115.764,83.796 115.764,84.578 L115.764,131.874 C115.764,132.656 114.864,133.290 113.752,133.290 ZM98.177,133.290 L96.034,133.290 C94.922,133.290 94.021,132.656 94.021,131.874 L94.021,97.030 C94.021,96.249 94.922,95.615 96.034,95.615 L98.177,95.615 C99.289,95.615 100.190,96.249 100.190,97.030 L100.190,131.874 C100.190,132.656 99.289,133.290 98.177,133.290 ZM81.722,134.045 L79.586,134.045 C78.479,134.045 77.581,133.843 77.581,133.593 L77.581,112.562 C77.581,112.312 78.479,112.110 79.586,112.110 L81.722,112.110 C82.829,112.110 83.727,112.312 83.727,112.562 L83.727,133.593 C83.727,133.843 82.829,134.045 81.722,134.045 ZM66.246,134.045 L64.110,134.045 C63.003,134.045 62.106,133.843 62.105,133.593 L62.105,120.703 C62.105,120.454 63.003,120.251 64.110,120.251 L66.246,120.251 C67.353,120.251 68.251,120.454 68.251,120.703 L68.251,133.593 C68.251,133.843 67.353,134.045 66.246,134.045 ZM50.770,134.045 L48.634,134.045 C47.527,134.045 46.629,133.843 46.629,133.593 L46.629,112.749 C46.629,112.499 47.527,112.296 48.634,112.296 L50.770,112.296 C51.877,112.296 52.774,112.499 52.774,112.749 L52.774,133.593 C52.774,133.843 51.877,134.045 50.770,134.045 ZM35.689,134.050 L33.530,134.050 C32.410,134.050 31.502,133.539 31.502,132.908 L31.502,105.015 C31.502,104.385 32.410,103.873 33.530,103.873 L35.689,103.873 C36.809,103.873 37.717,104.385 37.717,105.015 L37.717,132.908 C37.717,133.539 36.809,134.050 35.689,134.050 ZM19.878,134.050 L17.719,134.050 C16.599,134.050 15.692,133.539 15.692,132.908 L15.692,93.783 C15.692,93.153 16.599,92.641 17.719,92.641 L19.878,92.641 C20.998,92.641 21.906,93.153 21.906,93.783 L21.906,132.908 C21.906,133.539 20.998,134.050 19.878,134.050 ZM4.188,134.050 L2.029,134.050 C0.909,134.050 0.002,133.539 0.002,132.908 L0.002,104.808 C0.002,104.178 0.909,103.666 2.029,103.666 L4.188,103.666 C5.308,103.666 6.216,104.178 6.216,104.808 L6.216,132.908 C6.216,133.539 5.308,134.050 4.188,134.050 Z" class="cls-1"/>
  </g>
</svg>
